<svg width="143" height="21" viewBox="0 0 143 21" fill="none" xmlns="http://www.w3.org/2000/svg">
<path d="M6.78669 14.1879C5.64384 14.1879 4.62622 13.9922 3.73386 13.6008C2.84149 13.2094 2.13699 12.6771 1.62035 12.0039C1.10372 11.3151 0.81409 10.5479 0.751468 9.70254H4.72016C4.76712 10.1566 4.97847 10.5245 5.35421 10.8063C5.72994 11.0881 6.19178 11.229 6.73973 11.229C7.2407 11.229 7.62427 11.135 7.89041 10.9472C8.17221 10.7436 8.31311 10.4853 8.31311 10.1722C8.31311 9.79648 8.11742 9.52251 7.72603 9.35029C7.33464 9.16243 6.70059 8.9589 5.82387 8.73973C4.88454 8.52055 4.10176 8.29354 3.47554 8.05871C2.84931 7.80822 2.3092 7.42466 1.85519 6.90802C1.40117 6.37573 1.17417 5.66341 1.17417 4.77104C1.17417 4.01957 1.37769 3.33855 1.78474 2.72798C2.20744 2.10176 2.818 1.60861 3.61644 1.24853C4.43053 0.888454 5.39335 0.708415 6.50489 0.708415C8.14873 0.708415 9.44031 1.11546 10.3796 1.92955C11.3346 2.74364 11.8826 3.82388 12.0235 5.17025H8.31311C8.25049 4.71624 8.04697 4.35616 7.70254 4.09002C7.37378 3.82388 6.93542 3.6908 6.38748 3.6908C5.91781 3.6908 5.55773 3.78474 5.30724 3.9726C5.05675 4.14481 4.93151 4.38748 4.93151 4.70059C4.93151 5.07632 5.1272 5.35812 5.51859 5.54599C5.92564 5.73386 6.55186 5.92172 7.39726 6.10959C8.36791 6.36008 9.15851 6.61057 9.76908 6.86106C10.3796 7.09589 10.9119 7.48728 11.3659 8.03523C11.8356 8.56751 12.0783 9.28767 12.0939 10.1957C12.0939 10.9628 11.8748 11.6517 11.4364 12.2622C11.0137 12.8571 10.3953 13.3268 9.58121 13.6712C8.78278 14.0157 7.85127 14.1879 6.78669 14.1879ZM27.49 0.896282V14H23.4744V12.2153C23.0673 12.7945 22.5116 13.2642 21.8071 13.6243C21.1182 13.9687 20.3511 14.1409 19.5057 14.1409C18.5037 14.1409 17.6192 13.9217 16.8521 13.4834C16.0849 13.0294 15.49 12.3796 15.0673 11.5342C14.6446 10.6888 14.4333 9.69472 14.4333 8.55186V0.896282H18.4255V8.01174C18.4255 8.88845 18.6525 9.56947 19.1065 10.0548C19.5605 10.5401 20.171 10.7828 20.9382 10.7828C21.721 10.7828 22.3393 10.5401 22.7934 10.0548C23.2474 9.56947 23.4744 8.88845 23.4744 8.01174V0.896282H27.49ZM34.3901 2.75147C34.7815 2.1409 35.3216 1.64775 36.0105 1.27202C36.6993 0.896282 37.5056 0.708415 38.4292 0.708415C39.5095 0.708415 40.488 0.982388 41.3647 1.53033C42.2414 2.07828 42.9302 2.86106 43.4312 3.87867C43.9478 4.89628 44.2062 6.07828 44.2062 7.42466C44.2062 8.77104 43.9478 9.96086 43.4312 10.9941C42.9302 12.0117 42.2414 12.8023 41.3647 13.3659C40.488 13.9139 39.5095 14.1879 38.4292 14.1879C37.5212 14.1879 36.715 14 36.0105 13.6243C35.3216 13.2485 34.7815 12.7632 34.3901 12.1683V20.2466H30.3744V0.896282H34.3901V2.75147ZM40.12 7.42466C40.12 6.4227 39.8382 5.63992 39.2746 5.07632C38.7267 4.49706 38.0457 4.20744 37.2316 4.20744C36.4332 4.20744 35.7521 4.49706 35.1885 5.07632C34.6406 5.65558 34.3666 6.44618 34.3666 7.44814C34.3666 8.4501 34.6406 9.2407 35.1885 9.81996C35.7521 10.3992 36.4332 10.6888 37.2316 10.6888C38.03 10.6888 38.711 10.3992 39.2746 9.81996C39.8382 9.22505 40.12 8.42661 40.12 7.42466ZM58.6651 7.23679C58.6651 7.61252 58.6416 8.00391 58.5947 8.41096H49.5066C49.5692 9.22505 49.8275 9.85127 50.2816 10.2896C50.7512 10.7123 51.3226 10.9237 51.9958 10.9237C52.9978 10.9237 53.6945 10.501 54.0859 9.65558H58.3598C58.1407 10.5166 57.7414 11.2916 57.1622 11.9804C56.5986 12.6693 55.8862 13.2094 55.0252 13.6008C54.1641 13.9922 53.2013 14.1879 52.1367 14.1879C50.853 14.1879 49.7101 13.9139 48.7082 13.3659C47.7062 12.818 46.9234 12.0352 46.3598 11.0176C45.7962 10 45.5144 8.81018 45.5144 7.44814C45.5144 6.08611 45.7884 4.89628 46.3363 3.87867C46.8999 2.86106 47.6827 2.07828 48.6847 1.53033C49.6866 0.982388 50.8373 0.708415 52.1367 0.708415C53.4048 0.708415 54.532 0.97456 55.5183 1.50685C56.5046 2.03914 57.2718 2.79843 57.8197 3.78474C58.3833 4.77104 58.6651 5.92172 58.6651 7.23679ZM54.5555 6.18004C54.5555 5.49119 54.3207 4.94325 53.851 4.5362C53.3814 4.12916 52.7943 3.92564 52.0898 3.92564C51.4166 3.92564 50.8452 4.12133 50.3755 4.51272C49.9215 4.90411 49.6397 5.45988 49.5301 6.18004H54.5555ZM64.7992 3.08023C65.2689 2.36008 65.856 1.79648 66.5605 1.38943C67.265 0.966733 68.0478 0.755382 68.9088 0.755382V5.00587H67.8051C66.8031 5.00587 66.0517 5.22505 65.5507 5.66341C65.0497 6.08611 64.7992 6.83757 64.7992 7.91781V14H60.7836V0.896282H64.7992V3.08023ZM78.8126 0.755382C80.3468 0.755382 81.5679 1.25636 82.476 2.25832C83.3996 3.24462 83.8615 4.60665 83.8615 6.34442V14H79.8693V6.88454C79.8693 6.00783 79.6423 5.32681 79.1883 4.84149C78.7343 4.35616 78.1237 4.1135 77.3566 4.1135C76.5895 4.1135 75.9789 4.35616 75.5249 4.84149C75.0709 5.32681 74.8439 6.00783 74.8439 6.88454V14H70.8282V0.896282H74.8439V2.63405C75.2509 2.05479 75.7989 1.60078 76.4877 1.27202C77.1766 0.927593 77.9515 0.755382 78.8126 0.755382ZM92.6167 14.1879C91.333 14.1879 90.1745 13.9139 89.1412 13.3659C88.1236 12.818 87.3173 12.0352 86.7224 11.0176C86.1432 10 85.8535 8.81018 85.8535 7.44814C85.8535 6.10176 86.151 4.91977 86.7459 3.90215C87.3408 2.86889 88.1549 2.07828 89.1882 1.53033C90.2214 0.982388 91.38 0.708415 92.6637 0.708415C93.9475 0.708415 95.106 0.982388 96.1392 1.53033C97.1725 2.07828 97.9866 2.86889 98.5815 3.90215C99.1764 4.91977 99.4739 6.10176 99.4739 7.44814C99.4739 8.79452 99.1686 9.98434 98.558 11.0176C97.9631 12.0352 97.1412 12.818 96.0923 13.3659C95.059 13.9139 93.9005 14.1879 92.6167 14.1879ZM92.6167 10.7123C93.3839 10.7123 94.0336 10.4305 94.5659 9.86693C95.1138 9.30333 95.3878 8.49706 95.3878 7.44814C95.3878 6.39922 95.1216 5.59296 94.5893 5.02935C94.0727 4.46575 93.4308 4.18395 92.6637 4.18395C91.8809 4.18395 91.2312 4.46575 90.7146 5.02935C90.198 5.5773 89.9396 6.38356 89.9396 7.44814C89.9396 8.49706 90.1901 9.30333 90.6911 9.86693C91.2077 10.4305 91.8496 10.7123 92.6167 10.7123ZM107.499 10.2427L110.34 0.896282H114.614L109.964 14H105.009L100.36 0.896282H104.657L107.499 10.2427ZM115.506 7.42466C115.506 6.07828 115.756 4.89628 116.257 3.87867C116.774 2.86106 117.471 2.07828 118.347 1.53033C119.224 0.982388 120.203 0.708415 121.283 0.708415C122.206 0.708415 123.013 0.896282 123.702 1.27202C124.406 1.64775 124.946 2.1409 125.322 2.75147V0.896282H129.338V14H125.322V12.1448C124.931 12.7554 124.383 13.2485 123.678 13.6243C122.989 14 122.183 14.1879 121.259 14.1879C120.195 14.1879 119.224 13.9139 118.347 13.3659C117.471 12.8023 116.774 12.0117 116.257 10.9941C115.756 9.96086 115.506 8.77104 115.506 7.42466ZM125.322 7.44814C125.322 6.44618 125.04 5.65558 124.477 5.07632C123.929 4.49706 123.255 4.20744 122.457 4.20744C121.659 4.20744 120.977 4.49706 120.414 5.07632C119.866 5.63992 119.592 6.4227 119.592 7.42466C119.592 8.42661 119.866 9.22505 120.414 9.81996C120.977 10.3992 121.659 10.6888 122.457 10.6888C123.255 10.6888 123.929 10.3992 124.477 9.81996C125.04 9.2407 125.322 8.4501 125.322 7.44814ZM137.573 14.1879C136.431 14.1879 135.413 13.9922 134.521 13.6008C133.628 13.2094 132.924 12.6771 132.407 12.0039C131.89 11.3151 131.601 10.5479 131.538 9.70254H135.507C135.554 10.1566 135.765 10.5245 136.141 10.8063C136.517 11.0881 136.979 11.229 137.526 11.229C138.027 11.229 138.411 11.135 138.677 10.9472C138.959 10.7436 139.1 10.4853 139.1 10.1722C139.1 9.79648 138.904 9.52251 138.513 9.35029C138.121 9.16243 137.487 8.9589 136.611 8.73973C135.671 8.52055 134.889 8.29354 134.262 8.05871C133.636 7.80822 133.096 7.42466 132.642 6.90802C132.188 6.37573 131.961 5.66341 131.961 4.77104C131.961 4.01957 132.164 3.33855 132.571 2.72798C132.994 2.10176 133.605 1.60861 134.403 1.24853C135.217 0.888454 136.18 0.708415 137.292 0.708415C138.935 0.708415 140.227 1.11546 141.166 1.92955C142.121 2.74364 142.669 3.82388 142.81 5.17025H139.1C139.037 4.71624 138.834 4.35616 138.489 4.09002C138.161 3.82388 137.722 3.6908 137.174 3.6908C136.705 3.6908 136.344 3.78474 136.094 3.9726C135.843 4.14481 135.718 4.38748 135.718 4.70059C135.718 5.07632 135.914 5.35812 136.305 5.54599C136.712 5.73386 137.339 5.92172 138.184 6.10959C139.155 6.36008 139.945 6.61057 140.556 6.86106C141.166 7.09589 141.699 7.48728 142.153 8.03523C142.622 8.56751 142.865 9.28767 142.881 10.1957C142.881 10.9628 142.661 11.6517 142.223 12.2622C141.8 12.8571 141.182 13.3268 140.368 13.6712C139.57 14.0157 138.638 14.1879 137.573 14.1879Z" fill="black" fill-opacity="0.95"/>
</svg>
