<svg width="29" height="30" viewBox="0 0 29 30" fill="none" xmlns="http://www.w3.org/2000/svg">
<mask id="mask0_93_1004" style="mask-type:alpha" maskUnits="userSpaceOnUse" x="3" y="4" width="23" height="23">
<path d="M3.82617 14.1813C3.82617 9.66062 3.82617 7.40026 5.23057 5.99586C6.63497 4.59146 8.89533 4.59146 13.416 4.59146H15.8135C20.3342 4.59146 22.5945 4.59146 23.9989 5.99586C25.4033 7.40026 25.4033 9.66061 25.4033 14.1813V16.5788C25.4033 21.0995 25.4033 23.3598 23.9989 24.7642C22.5945 26.1686 20.3342 26.1686 15.8135 26.1686H13.416C8.89533 26.1686 6.63497 26.1686 5.23057 24.7642C3.82617 23.3598 3.82617 21.0995 3.82617 16.5788V14.1813Z" fill="#273B4A"/>
</mask>
<g mask="url(#mask0_93_1004)">
<path d="M6.71547 16.0874L6.53236 16.2705C5.3568 17.4461 4.76901 18.0339 4.41721 18.7555C4.29495 19.0062 4.19482 19.2672 4.11794 19.5354C3.8967 20.3071 3.94039 21.1372 4.02777 22.7974L4.42603 30.3642H25.4038V24.679C25.4038 22.9391 25.4038 22.0692 25.1178 21.2786C25.0397 21.0625 24.946 20.8523 24.8377 20.6495C24.4414 19.9081 23.7948 19.3262 22.5016 18.1623L22.5015 18.1623L22.2443 17.9308C21.1702 16.964 20.6331 16.4807 20.0189 16.3437C19.6336 16.2578 19.2332 16.2683 18.853 16.3744C18.2468 16.5434 17.7359 17.0544 16.714 18.0762C15.956 18.8342 15.577 19.2133 15.1697 19.2647C14.9172 19.2965 14.6611 19.2472 14.4385 19.1239C14.0795 18.9249 13.8651 18.4247 13.4364 17.4243C12.5245 15.2966 12.0686 14.2328 11.2848 13.8398C10.8902 13.642 10.4486 13.557 10.0088 13.5941C9.13507 13.6678 8.32854 14.4744 6.71547 16.0874Z" fill="#7E869E" fill-opacity="0.25" stroke="#727272" stroke-width="1.19873"/>
</g>
<path d="M3.82617 14.1813C3.82617 9.66062 3.82617 7.40026 5.23057 5.99586C6.63497 4.59146 8.89533 4.59146 13.416 4.59146H15.8135C20.3342 4.59146 22.5945 4.59146 23.9989 5.99586C25.4033 7.40026 25.4033 9.66061 25.4033 14.1813V16.5788C25.4033 21.0995 25.4033 23.3598 23.9989 24.7642C22.5945 26.1686 20.3342 26.1686 15.8135 26.1686H13.416C8.89533 26.1686 6.63497 26.1686 5.23057 24.7642C3.82617 23.3598 3.82617 21.0995 3.82617 16.5788V14.1813Z" stroke="#727272" stroke-width="1.43848"/>
<circle cx="20.009" cy="9.98575" r="1.7981" fill="#727272"/>
</svg>
