<?xml version="1.0" standalone="no"?>
<!DOCTYPE svg PUBLIC "-//W3C//DTD SVG 20010904//EN"
 "http://www.w3.org/TR/2001/REC-SVG-20010904/DTD/svg10.dtd">
<svg version="1.0" xmlns="http://www.w3.org/2000/svg"
 width="939.000000pt" height="939.000000pt" viewBox="0 0 939.000000 939.000000"
 preserveAspectRatio="xMidYMid meet">
<metadata>
Created by potrace 1.14, written by Peter Selinger 2001-2017
</metadata>
<g transform="translate(0.000000,939.000000) scale(0.100000,-0.100000)"
fill="#000000" stroke="none">
<path d="M1215 7910 c-158 -38 -234 -167 -171 -288 26 -51 76 -79 212 -123
150 -49 170 -60 179 -100 13 -56 -55 -102 -139 -93 -65 6 -100 26 -120 69
l-17 35 -75 0 -76 0 7 -32 c16 -74 64 -130 142 -169 41 -20 63 -24 148 -24
113 0 182 23 228 75 33 37 56 104 50 149 -13 95 -65 137 -236 192 -163 52
-195 79 -166 143 22 48 133 64 192 27 32 -20 54 -53 49 -73 -2 -8 15 -10 83
-10 77 0 74 -2 64 42 -17 75 -63 129 -139 163 -47 21 -161 30 -215 17z"/>
<path d="M2857 7908 c-48 -10 -105 -40 -139 -73 -16 -14 -29 -22 -29 -18 -1 4
-3 22 -4 38 -2 17 -3 35 -4 40 -1 9 -92 13 -136 6 -7 -1 -10 -1164 -10 -3473
l0 -3473 69 -3 c38 -2 72 1 75 7 3 5 6 102 5 215 0 113 3 206 7 206 3 0 12 -7
19 -16 8 -8 33 -27 58 -41 125 -74 287 -54 388 46 52 53 56 58 84 121 21 47
25 71 25 160 0 97 -2 110 -31 170 -17 36 -41 75 -52 87 -109 113 -262 140
-400 71 -35 -17 -68 -40 -73 -51 -6 -10 -14 -16 -17 -12 -4 4 -7 107 -8 230
l0 224 35 -28 c79 -61 135 -80 228 -78 91 3 166 40 229 111 57 65 83 129 91
226 18 240 -142 415 -363 397 -76 -7 -119 -25 -185 -77 l-35 -28 1 226 c2 125
3 229 4 231 0 1 17 -11 36 -28 47 -41 81 -58 142 -69 133 -24 251 22 328 126
52 71 70 132 69 242 0 124 -26 193 -98 266 -108 107 -268 127 -400 50 -23 -14
-48 -32 -56 -40 -7 -9 -15 -16 -19 -16 -4 0 -7 103 -7 229 l0 229 40 -34 c126
-108 330 -97 445 25 19 20 48 65 65 101 28 59 31 74 31 165 0 124 -20 185 -87
259 -68 77 -139 109 -244 109 -68 1 -89 -3 -135 -26 -29 -14 -66 -38 -81 -52
-15 -14 -29 -25 -30 -25 -2 0 -4 103 -4 230 0 249 -4 236 50 188 46 -41 109
-61 196 -62 74 -1 93 3 142 27 127 62 196 183 196 343 0 157 -64 265 -198 335
-37 19 -60 23 -135 24 -100 0 -138 -13 -210 -71 l-41 -32 0 229 c0 126 2 229
4 229 2 0 20 -14 40 -31 121 -106 331 -93 444 28 127 136 130 387 7 528 -118
134 -349 144 -472 20 -10 -9 -18 -13 -19 -8 0 4 -2 107 -2 229 l-2 221 48 -38
c66 -52 132 -72 221 -67 128 7 223 74 280 195 58 126 43 306 -36 409 -78 102
-211 150 -340 122z m96 -127 c57 -14 103 -50 134 -106 23 -42 27 -62 27 -125
0 -107 -38 -176 -120 -218 -75 -38 -173 -26 -232 28 -104 94 -101 294 4 378
59 47 114 60 187 43z m42 -998 c125 -63 162 -243 76 -368 -97 -143 -316 -108
-374 61 -17 49 -14 148 6 196 17 40 67 98 86 98 6 0 11 4 11 9 0 12 88 28 130
23 19 -2 49 -11 65 -19z m6 -989 c79 -39 121 -123 115 -231 -13 -248 -330
-307 -415 -77 -33 90 -11 210 49 273 60 62 166 77 251 35z m-40 -964 c45 -13
112 -69 133 -114 40 -84 29 -196 -26 -272 -56 -78 -168 -109 -253 -68 -50 24
-104 83 -117 129 -29 106 -9 204 56 270 59 58 128 77 207 55z m49 -1009 c113
-68 143 -237 61 -356 -97 -142 -326 -106 -373 60 -64 226 127 408 312 296z
m-20 -972 c25 -11 57 -34 73 -52 58 -67 71 -202 27 -287 -70 -137 -247 -161
-347 -47 -80 91 -77 257 8 346 56 59 159 77 239 40z m13 -989 c76 -38 122
-132 113 -232 -11 -131 -98 -220 -215 -220 -121 1 -208 90 -215 220 -6 112 39
196 128 238 61 29 122 27 189 -6z"/>
<path d="M3592 7904 c-162 -42 -256 -184 -248 -378 8 -220 161 -358 380 -343
96 6 157 30 213 84 45 42 87 109 80 127 -3 6 -20 10 -38 9 -19 -1 -52 -2 -75
-2 -31 -1 -43 -6 -53 -23 -20 -38 -77 -68 -133 -72 -102 -7 -186 47 -213 138
l-14 46 32 1 c18 1 141 1 273 1 275 -1 253 -9 248 93 -8 192 -139 323 -329
330 -38 1 -94 -4 -123 -11z m205 -138 c52 -27 93 -87 93 -135 0 -16 -15 -18
-195 -18 -194 -1 -195 -1 -195 21 0 34 55 113 92 132 65 34 140 34 205 0z"/>
<path d="M4453 7908 c-27 -6 -60 -25 -91 -53 l-49 -44 1 47 1 47 -73 1 c-39 1
-72 -2 -73 -5 -3 -20 -4 -688 -1 -698 5 -14 141 -19 143 -5 0 4 2 106 3 227 2
121 8 231 13 245 25 60 91 97 171 95 l32 -1 0 78 c0 87 3 84 -77 66z"/>
<path d="M4904 7902 c-41 -16 -94 -49 -106 -67 -8 -10 -9 -4 -12 48 -1 20 -6
22 -69 23 -37 0 -70 -3 -73 -8 -4 -6 -7 -506 -5 -671 l1 -38 73 3 72 3 1 220
c1 242 7 279 56 326 38 36 83 51 140 45 89 -8 141 -53 157 -139 5 -29 8 -143
8 -255 l-2 -203 75 3 75 3 -2 245 c-1 224 -3 250 -22 302 -26 68 -81 124 -148
151 -61 25 -167 29 -219 9z"/>
<path d="M5671 7904 c-104 -28 -173 -85 -222 -181 -33 -64 -34 -71 -33 -177 0
-101 3 -116 29 -169 36 -75 94 -133 164 -166 49 -23 69 -26 161 -26 95 0 110
3 159 28 145 75 214 192 207 355 -4 79 -23 143 -60 197 -83 122 -254 181 -405
139z m194 -137 c80 -42 118 -111 118 -217 1 -78 -20 -137 -63 -180 -36 -36
-97 -60 -152 -60 -120 0 -197 79 -206 210 -8 122 36 212 122 251 49 21 136 20
181 -4z"/>
<path d="M7170 7901 c-102 -36 -174 -104 -212 -200 -17 -44 -22 -76 -21 -151
0 -131 25 -194 107 -275 78 -76 126 -95 238 -92 91 3 138 21 202 77 l34 31 0
-33 c-1 -72 -5 -68 76 -68 l75 0 -2 358 -2 357 -72 1 c-79 0 -78 2 -74 -64 l2
-32 -52 39 c-28 21 -70 44 -92 51 -64 20 -155 20 -207 1z m215 -130 c81 -32
128 -113 129 -221 1 -119 -49 -198 -146 -229 -113 -36 -231 24 -269 136 -29
89 -7 213 49 265 67 63 155 81 237 49z"/>
<path d="M7989 7906 c-105 -28 -170 -93 -177 -180 -6 -73 22 -131 80 -168 24
-14 97 -43 163 -64 139 -43 179 -72 166 -120 -12 -45 -52 -68 -119 -68 -72 0
-112 19 -137 67 l-20 37 -72 0 c-68 0 -73 -1 -73 -22 0 -34 37 -102 72 -133
80 -71 242 -96 354 -54 165 62 195 255 53 344 -21 14 -87 39 -146 56 -127 37
-173 66 -173 110 0 20 9 39 28 55 25 24 33 26 96 22 62 -3 71 -7 97 -36 16
-18 29 -39 29 -47 0 -15 12 -17 95 -17 54 0 55 0 55 15 0 81 -83 177 -175 202
-49 13 -147 14 -196 1z"/>
<path d="M1711 7664 c1 -278 8 -318 71 -389 58 -66 115 -89 219 -90 71 0 93 4
132 24 26 13 52 30 58 38 19 22 29 15 29 -22 l0 -35 73 0 73 0 1 355 c0 247
-3 355 -11 358 -6 2 -40 3 -75 3 l-64 -1 -1 -235 c-1 -229 -2 -236 -25 -277
-63 -111 -250 -111 -307 -1 -24 46 -26 67 -28 298 l-1 215 -73 1 -73 1 2 -243z"/>
<path d="M6180 7899 c0 -5 47 -131 104 -281 57 -150 116 -308 132 -351 l29
-78 89 3 90 3 19 50 c10 28 27 70 37 95 19 44 140 364 186 489 13 35 24 67 24
71 0 4 -34 7 -76 6 l-76 -1 -99 -284 c-54 -156 -100 -285 -102 -287 -2 -2 -37
92 -77 208 -41 117 -86 247 -101 288 l-26 75 -77 1 c-42 0 -76 -3 -76 -7z"/>
<path d="M1214 6925 c-91 -21 -144 -61 -175 -131 -28 -63 -16 -138 30 -187 35
-39 75 -57 211 -101 130 -41 147 -51 154 -90 10 -57 -42 -96 -128 -96 -56 0
-107 28 -128 70 l-18 35 -75 0 -75 1 6 -30 c19 -110 127 -191 264 -199 178
-10 299 73 302 207 2 106 -54 156 -242 216 -71 23 -135 49 -143 58 -29 32 -30
67 -4 98 23 27 30 29 95 29 64 0 73 -3 101 -29 16 -16 31 -38 33 -50 3 -19 10
-21 73 -22 39 -1 73 3 76 8 11 18 -17 90 -50 130 -64 76 -189 110 -307 83z"/>
<path d="M3630 6929 c-174 -33 -281 -162 -289 -349 -5 -114 33 -214 110 -289
59 -58 129 -89 215 -94 155 -10 279 56 344 183 l20 40 -82 0 c-81 0 -83 -1
-99 -29 -21 -37 -93 -71 -150 -71 -98 1 -188 73 -200 160 l-4 25 269 2 c186 2
272 6 276 14 12 18 2 137 -15 189 -52 157 -221 251 -395 219z m140 -132 c67
-29 120 -94 120 -147 0 -19 -5 -20 -195 -20 -215 0 -209 -2 -181 63 31 72 97
115 179 114 28 0 63 -5 77 -10z"/>
<path d="M4475 6930 c-50 -11 -104 -41 -130 -71 -28 -34 -34 -29 -31 24 l3 37
-51 1 c-28 0 -61 2 -73 3 -15 2 -23 -3 -24 -13 -3 -54 -4 -679 -1 -691 2 -12
17 -15 70 -14 37 2 69 3 72 3 3 1 5 92 4 203 0 112 3 220 7 242 14 77 75 125
162 126 l47 0 0 74 c0 80 -5 87 -55 76z"/>
<path d="M4941 6929 c-42 -8 -124 -49 -136 -69 -13 -20 -21 -9 -19 25 l3 35
-52 1 c-55 1 -90 -1 -95 -6 -7 -6 -3 -697 3 -704 8 -7 134 -9 136 -1 1 3 3
100 4 216 1 116 5 227 9 248 9 48 67 112 109 122 78 17 154 2 189 -38 50 -57
52 -69 53 -311 1 -167 4 -230 13 -236 14 -9 113 -8 127 1 6 4 10 95 9 245 -1
274 -9 311 -74 386 -62 70 -174 105 -279 86z"/>
<path d="M5738 6935 c-2 -2 -21 -6 -43 -9 -125 -20 -228 -113 -270 -245 -25
-77 -18 -207 16 -281 56 -120 162 -194 293 -203 239 -17 414 153 402 391 -8
169 -123 309 -276 336 -42 8 -118 14 -122 11z m132 -155 c78 -40 113 -108 113
-216 0 -117 -44 -188 -139 -223 -163 -62 -297 59 -282 253 9 105 53 167 139
196 61 21 114 18 169 -10z"/>
<path d="M7191 6923 c-155 -39 -247 -157 -256 -328 -5 -79 11 -160 44 -223 99
-192 355 -236 515 -87 l27 25 -4 -50 c-2 -28 -1 -51 2 -51 17 -4 128 -5 138
-1 9 3 12 92 12 358 l0 354 -52 1 c-56 1 -90 -1 -96 -6 -2 -2 -4 -22 -4 -44
-1 -23 -2 -41 -3 -41 -1 0 -21 15 -43 34 -73 61 -183 84 -280 59z m210 -144
c156 -79 153 -350 -4 -431 -102 -52 -221 -14 -280 90 -25 45 -30 64 -30 126
-1 59 4 82 25 122 56 108 182 148 289 93z"/>
<path d="M8025 6929 c-156 -23 -236 -122 -209 -258 14 -69 92 -119 259 -167
147 -41 186 -92 118 -156 -21 -19 -35 -23 -93 -23 -77 0 -113 18 -140 71 -14
28 -18 29 -88 30 -66 0 -72 -2 -72 -20 1 -69 85 -163 172 -192 71 -23 180 -23
247 1 126 46 183 164 131 271 -27 55 -79 88 -198 126 -53 16 -110 35 -126 41
-97 36 -84 137 19 152 78 12 137 -13 161 -70 l13 -33 71 1 c78 1 80 4 58 68
-27 80 -104 143 -188 154 -25 3 -54 8 -65 9 -11 2 -42 0 -70 -5z"/>
<path d="M1715 6921 c-3 -2 -5 -109 -5 -237 0 -203 2 -240 20 -295 24 -79 70
-131 146 -166 101 -46 241 -29 312 37 30 28 35 25 30 -15 -2 -19 1 -36 7 -38
5 -2 39 -3 75 -2 l65 0 1 357 1 356 -63 4 c-34 2 -68 2 -75 0 -11 -2 -14 -43
-12 -215 1 -218 -5 -272 -38 -318 -51 -72 -192 -84 -261 -22 -12 10 -30 38
-40 61 -18 39 -20 68 -20 268 l0 224 -42 1 c-22 0 -54 2 -69 3 -15 1 -30 0
-32 -3z"/>
<path d="M6227 6922 c-57 -4 -60 19 29 -217 36 -93 85 -224 110 -290 25 -66
50 -128 55 -137 5 -10 9 -24 9 -32 0 -32 26 -41 109 -41 l83 0 135 353 c74
195 133 356 130 358 -9 9 -138 7 -147 -2 -5 -5 -50 -127 -99 -272 -50 -145
-95 -270 -100 -279 -7 -13 -11 -8 -20 23 -7 21 -16 48 -21 59 -10 22 -58 162
-123 352 -46 136 -41 132 -150 125z"/>
<path d="M1191 5938 c-39 -11 -99 -47 -123 -75 -51 -57 -57 -159 -13 -222 33
-49 75 -71 216 -115 125 -39 155 -56 164 -97 8 -32 -27 -77 -65 -84 -46 -9
-105 -7 -131 3 -29 12 -69 57 -69 78 0 11 -19 14 -80 14 -91 0 -93 -2 -59 -75
25 -53 76 -100 138 -129 60 -27 194 -29 266 -3 149 52 197 213 93 315 -36 36
-59 47 -173 84 -152 48 -179 65 -179 112 0 56 51 86 134 79 55 -4 86 -24 107
-68 17 -35 17 -35 86 -35 l70 0 -6 42 c-8 59 -53 118 -117 152 -47 26 -67 30
-140 32 -47 1 -100 -2 -119 -8z"/>
<path d="M3597 5940 c-81 -21 -153 -73 -200 -145 -40 -63 -57 -135 -53 -233 4
-113 42 -199 116 -265 71 -61 134 -82 245 -81 76 0 100 5 145 26 82 39 150
108 165 170 l7 26 -74 -1 c-72 -2 -75 -3 -107 -39 -75 -86 -234 -79 -304 14
-26 34 -50 105 -39 111 4 2 127 3 274 3 302 -1 269 -11 272 79 5 133 -72 257
-194 313 -61 29 -184 39 -253 22z m201 -141 c47 -23 96 -93 90 -131 -3 -23 -3
-23 -192 -23 -140 0 -190 3 -193 12 -9 22 17 79 50 111 63 61 157 73 245 31z"/>
<path d="M4437 5936 c-43 -16 -62 -29 -99 -71 l-27 -30 3 42 c2 23 0 47 -4 53
-4 7 -32 10 -75 8 l-69 -3 1 -350 c1 -192 2 -353 2 -357 1 -9 141 -9 142 0 0
4 2 106 3 227 1 196 4 224 21 260 29 59 72 78 183 84 8 1 12 23 12 76 l0 75
-27 0 c-16 -1 -45 -7 -66 -14z"/>
<path d="M4898 5933 c-26 -9 -62 -29 -80 -44 -17 -16 -33 -29 -34 -29 -1 0 0
18 2 40 l4 40 -75 0 -75 0 0 -62 c-1 -114 -1 -572 -1 -615 l1 -43 70 0 c39 0
71 3 71 8 1 4 3 99 4 212 2 234 7 272 42 319 70 91 236 79 293 -22 24 -41 24
-48 25 -277 l1 -235 71 -2 c66 -2 71 -1 75 20 6 36 1 439 -6 480 -14 83 -69
158 -146 197 -58 30 -173 36 -242 13z"/>
<path d="M5665 5936 c-162 -52 -249 -170 -254 -344 -7 -217 133 -371 342 -377
119 -4 195 24 277 101 151 141 140 427 -22 555 -88 70 -239 99 -343 65z m201
-137 c139 -67 162 -299 41 -406 -93 -81 -233 -67 -305 32 -40 55 -53 176 -28
253 40 120 178 177 292 121z"/>
<path d="M7175 5936 c-61 -20 -98 -41 -139 -82 -147 -147 -136 -425 23 -567
56 -49 118 -71 206 -70 44 0 91 3 104 6 27 7 94 49 129 81 l24 21 -2 -30 c-5
-77 -8 -75 74 -73 l74 2 1 358 0 358 -78 0 -77 0 3 -45 c2 -25 1 -45 -3 -45
-3 0 -20 12 -38 27 -78 65 -204 90 -301 59z m218 -137 c74 -38 116 -107 123
-200 14 -218 -214 -342 -360 -195 -52 51 -73 110 -70 192 3 95 49 169 128 205
56 25 127 24 179 -2z"/>
<path d="M7972 5935 c-104 -32 -162 -102 -162 -196 0 -99 55 -152 208 -199
196 -61 222 -79 200 -143 -13 -37 -60 -59 -123 -59 -71 0 -124 31 -140 83 -6
18 -17 21 -90 21 -59 0 -65 -2 -65 -22 0 -63 63 -139 149 -178 47 -23 70 -27
146 -27 81 0 97 4 150 30 82 41 117 89 121 161 3 71 -9 106 -53 144 -43 39
-97 63 -198 90 -95 26 -143 53 -151 85 -15 62 27 99 113 99 70 0 107 -21 125
-70 l12 -34 74 0 74 0 -7 38 c-16 86 -76 149 -171 178 -58 17 -155 17 -212 -1z"/>
<path d="M1710 5704 c0 -265 8 -314 64 -387 19 -25 55 -53 89 -71 49 -25 70
-30 135 -30 63 0 88 5 135 26 31 15 60 34 63 43 9 23 26 18 24 -7 -5 -58 -5
-58 73 -55 l72 2 1 358 0 357 -73 0 c-73 0 -73 0 -74 -27 -1 -16 -1 -111 -1
-213 1 -222 -10 -273 -65 -319 -68 -56 -178 -52 -241 9 -47 44 -54 90 -55 333
l-1 217 -73 0 -73 0 0 -236z"/>
<path d="M6185 5913 c3 -16 13 -41 20 -58 7 -16 36 -91 64 -165 28 -74 79
-209 114 -300 l63 -165 88 0 89 0 133 349 c74 192 134 353 134 358 0 5 -34 8
-76 6 l-76 -3 -42 -120 c-24 -66 -69 -196 -101 -288 l-58 -169 -18 49 c-24 67
-80 227 -129 368 -62 183 -48 165 -136 165 l-76 0 7 -27z"/>
<path d="M1210 4956 c-146 -31 -223 -155 -170 -273 27 -61 71 -89 215 -135
141 -44 171 -59 181 -90 18 -57 -51 -109 -137 -104 -62 5 -103 28 -123 71
l-17 35 -74 0 c-85 0 -89 -4 -56 -77 45 -99 148 -155 283 -154 159 0 270 89
270 212 -1 107 -54 154 -246 213 -153 48 -184 76 -155 140 14 30 55 46 116 46
65 0 105 -25 123 -77 10 -28 11 -28 80 -25 67 3 70 5 70 28 0 63 -61 143 -135
175 -54 24 -153 31 -225 15z"/>
<path d="M3607 4958 c-84 -18 -172 -82 -220 -160 -45 -72 -58 -244 -26 -338
30 -88 116 -178 202 -209 118 -44 271 -21 363 55 39 31 109 132 100 142 -2 1
-38 4 -80 5 -69 1 -78 -1 -92 -21 -42 -60 -103 -85 -184 -76 -85 10 -146 63
-168 147 -10 37 -10 37 21 38 18 0 141 0 274 0 l242 -1 5 28 c7 34 0 109 -14
164 -36 133 -163 227 -314 232 -39 1 -88 -1 -109 -6z m178 -137 c62 -28 105
-86 105 -140 0 -17 -14 -18 -195 -18 -193 0 -195 0 -195 22 0 39 57 115 103
135 53 25 130 25 182 1z"/>
<path d="M4449 4957 c-35 -9 -92 -47 -121 -82 -17 -20 -17 -19 -16 15 1 68 4
66 -72 66 -55 -1 -70 -4 -71 -16 -1 -8 -2 -169 -3 -358 l-1 -343 74 3 75 3 1
225 c1 197 3 230 19 263 23 46 79 78 145 80 l46 2 3 76 c3 73 2 75 -21 75 -13
0 -39 -4 -58 -9z"/>
<path d="M4917 4955 c-26 -7 -63 -25 -82 -39 -44 -34 -50 -33 -50 7 l0 32 -68
1 c-38 0 -70 -4 -73 -8 -4 -6 -7 -580 -4 -690 0 -16 10 -18 73 -18 l72 0 1
229 c1 215 3 232 23 275 69 142 288 119 328 -34 5 -19 9 -133 9 -253 l-1 -218
75 3 74 3 -1 245 c-1 224 -3 250 -22 301 -39 104 -123 163 -242 172 -37 3 -84
0 -112 -8z"/>
<path d="M5694 4960 c-160 -32 -272 -164 -282 -331 -10 -173 57 -298 196 -366
50 -25 68 -28 152 -28 52 0 104 3 115 6 124 34 225 142 254 270 14 60 6 177
-14 229 -41 104 -123 180 -230 212 -44 13 -144 17 -191 8z m167 -142 c56 -24
102 -82 117 -147 10 -47 4 -145 -12 -182 -70 -165 -299 -177 -378 -20 -24 47
-27 63 -25 135 4 119 41 181 130 218 48 20 115 19 168 -4z"/>
<path d="M7191 4958 c-57 -13 -132 -60 -176 -111 -120 -140 -106 -400 29 -527
63 -60 114 -82 201 -87 95 -6 167 16 232 72 l41 35 0 -32 c-1 -72 -5 -68 76
-68 l75 0 -2 357 -2 357 -65 1 c-36 1 -69 0 -75 -2 -5 -2 -9 -23 -8 -48 l2
-44 -46 35 c-25 19 -62 42 -82 50 -45 19 -142 25 -200 12z m194 -139 c86 -38
129 -111 128 -219 0 -150 -82 -242 -215 -241 -115 0 -202 91 -211 222 -14 179
146 307 298 238z"/>
<path d="M7997 4959 c-111 -26 -187 -106 -187 -199 0 -102 53 -154 212 -204
160 -52 185 -64 197 -96 21 -63 -41 -110 -136 -104 -65 4 -99 24 -122 72 -16
31 -17 32 -90 32 l-74 0 6 -35 c26 -159 260 -247 442 -166 86 39 132 118 121
209 -11 91 -73 137 -255 190 -113 33 -151 59 -151 104 0 56 53 84 142 76 42
-4 57 -11 80 -37 15 -17 28 -38 28 -46 0 -10 11 -15 33 -16 17 0 49 -1 71 -2
46 -2 51 7 36 64 -15 58 -88 129 -150 148 -55 17 -152 21 -203 10z"/>
<path d="M1721 4952 c-8 -3 -11 -71 -11 -235 0 -286 8 -326 85 -403 103 -104
275 -114 388 -22 l39 30 -2 -28 c-4 -56 -5 -55 73 -52 l72 3 0 355 0 354 -68
1 c-37 1 -71 -3 -74 -8 -3 -5 -6 -111 -7 -236 l-1 -226 -27 -47 c-22 -36 -38
-50 -73 -63 -63 -25 -143 -17 -188 18 -61 46 -69 85 -71 339 l-1 223 -61 0
c-34 1 -66 -1 -73 -3z"/>
<path d="M6180 4946 c0 -6 25 -75 56 -155 91 -236 119 -309 165 -434 l44 -118
90 3 90 3 66 175 c37 96 71 186 77 200 5 14 37 95 69 180 l59 155 -79 0 -79 0
-54 -155 c-112 -325 -147 -421 -150 -417 -2 1 -35 95 -74 207 -39 113 -84 241
-99 285 l-28 80 -76 0 c-43 0 -77 -4 -77 -9z"/>
<path d="M1220 3975 c-99 -20 -156 -64 -186 -142 -33 -85 7 -178 95 -222 20
-10 89 -35 154 -56 112 -36 157 -62 157 -91 0 -54 -56 -94 -132 -94 -58 0
-109 27 -130 70 l-18 35 -76 1 -76 1 6 -29 c23 -115 132 -196 273 -202 140 -5
247 49 285 143 15 37 12 115 -6 148 -31 61 -69 81 -275 150 -99 33 -131 64
-115 110 18 53 121 81 182 49 34 -18 63 -49 66 -73 3 -15 13 -18 74 -19 68 -1
72 0 72 21 0 88 -89 182 -190 199 -70 12 -106 12 -160 1z"/>
<path d="M3698 3985 c-2 -2 -28 -5 -58 -8 -119 -11 -228 -93 -270 -202 -29
-77 -36 -202 -14 -277 39 -132 124 -212 254 -242 160 -36 304 19 386 146 39
62 35 68 -50 68 -72 0 -74 -1 -100 -34 -54 -72 -186 -87 -266 -31 -41 29 -93
116 -83 141 4 11 54 14 276 16 l271 3 2 55 c4 148 -71 278 -191 331 -35 16
-150 40 -157 34z m96 -150 c46 -22 85 -72 93 -119 l6 -36 -197 0 c-220 0 -215
-2 -177 73 21 42 59 76 105 94 40 16 123 10 170 -12z"/>
<path d="M4938 3975 c-31 -6 -74 -23 -97 -38 -48 -32 -57 -33 -53 -6 6 34 -13
44 -78 43 -33 -1 -63 -4 -66 -7 -5 -4 -6 -262 -4 -637 l0 -75 73 0 73 0 1 220
c1 225 8 282 41 321 57 67 188 78 254 21 58 -50 62 -72 62 -322 1 -126 4 -232
8 -235 6 -5 73 -5 128 -1 23 2 20 452 -3 531 -40 138 -184 216 -339 185z"/>
<path d="M5694 3974 c-190 -39 -296 -187 -281 -395 14 -207 166 -342 374 -333
117 5 225 64 290 157 44 65 57 115 57 222 -1 75 -5 99 -26 147 -49 108 -156
191 -260 204 -24 3 -54 6 -68 8 -14 2 -53 -3 -86 -10z m174 -143 c73 -38 112
-104 117 -201 7 -150 -83 -254 -220 -253 -71 0 -111 18 -154 70 -79 96 -59
308 34 369 66 43 156 49 223 15z"/>
<path d="M7215 3979 c-161 -29 -270 -157 -281 -329 -8 -124 28 -231 103 -307
126 -127 333 -130 456 -7 l25 25 0 -33 c-1 -77 -4 -73 64 -71 35 1 69 2 76 2
9 1 12 79 12 356 l0 355 -22 1 c-132 5 -130 6 -131 -50 -1 -42 -10 -52 -24
-28 -12 20 -83 63 -123 75 -50 15 -109 19 -155 11z m193 -155 c134 -78 146
-308 21 -406 -40 -32 -73 -42 -140 -41 -124 2 -213 118 -202 263 5 63 20 104
51 138 74 82 177 99 270 46z"/>
<path d="M8027 3979 c-101 -16 -163 -54 -196 -123 -35 -70 -27 -144 21 -197
41 -45 91 -68 248 -113 108 -31 141 -67 113 -124 -38 -78 -223 -63 -254 22
l-12 33 -73 0 c-71 0 -74 -1 -74 -24 0 -67 85 -160 174 -189 64 -22 186 -22
245 0 122 45 180 157 136 263 -27 64 -75 95 -215 138 -148 45 -179 65 -180
116 0 43 40 72 109 75 71 4 120 -23 136 -72 10 -30 11 -31 77 -30 36 1 70 4
74 8 4 4 1 29 -6 54 -33 116 -171 186 -323 163z"/>
<path d="M1726 3972 c-16 -4 -17 -22 -14 -260 3 -237 5 -261 25 -303 58 -126
209 -191 348 -151 47 13 106 47 113 64 8 19 22 5 20 -20 -4 -48 4 -51 133 -43
14 1 16 39 16 356 l0 355 -31 1 c-65 2 -108 0 -113 -5 -3 -3 -6 -108 -7 -233
-2 -250 -8 -282 -66 -323 -83 -59 -222 -36 -262 43 -28 55 -30 74 -30 298 0
157 -3 219 -12 220 -53 3 -105 3 -120 1z"/>
<path d="M4169 3960 c-7 -100 -2 -693 6 -698 5 -3 38 -6 72 -7 50 -1 63 2 64
15 0 8 2 112 3 230 2 179 5 220 19 247 26 49 69 74 137 80 l60 6 0 73 0 74
-34 0 c-46 0 -99 -24 -146 -66 -37 -34 -39 -34 -38 -12 3 74 4 73 -72 73 -55
0 -70 -3 -71 -15z"/>
<path d="M6196 3972 c-20 -4 -20 -9 3 -68 11 -27 31 -78 44 -114 14 -36 38
-101 55 -145 17 -44 49 -129 72 -190 23 -60 45 -118 51 -127 5 -10 9 -24 9
-32 0 -37 41 -46 182 -37 10 1 20 12 24 29 4 15 16 47 26 72 11 25 21 52 24
60 2 8 49 133 105 278 55 145 98 266 95 269 -10 10 -137 8 -146 -2 -5 -6 -27
-64 -50 -130 -23 -66 -63 -183 -90 -260 -26 -77 -52 -150 -57 -163 -7 -19 -12
-12 -35 55 -66 195 -171 498 -173 501 -4 4 -120 7 -139 4z"/>
<path d="M1177 2981 c-116 -39 -174 -135 -146 -242 10 -40 54 -91 96 -112 15
-8 81 -31 147 -52 159 -49 195 -86 146 -148 -19 -24 -39 -32 -105 -41 -55 -8
-145 45 -145 86 0 13 -8 18 -32 19 -62 2 -120 0 -125 -5 -2 -2 1 -23 7 -46 15
-55 69 -113 138 -147 50 -25 68 -28 152 -28 84 0 102 4 152 28 57 28 116 97
119 139 1 10 2 24 2 31 3 41 -16 96 -43 125 -41 42 -83 63 -210 102 -116 35
-147 55 -156 97 -4 22 0 35 22 56 14 15 36 28 48 28 110 8 159 -15 180 -83 4
-15 17 -18 75 -18 38 0 72 3 74 8 3 4 -2 29 -10 55 -39 134 -220 203 -386 148z"/>
<path d="M3588 2987 c-162 -46 -262 -206 -244 -392 13 -147 79 -246 199 -301
55 -25 73 -29 157 -28 81 0 103 4 152 26 78 36 163 129 167 183 1 5 -32 10
-73 11 -75 2 -75 2 -102 -33 -70 -91 -235 -86 -307 9 -31 41 -50 105 -34 110
7 2 130 4 275 4 168 -1 262 2 263 9 31 229 -107 404 -326 412 -46 2 -100 -3
-127 -10z m187 -128 c42 -13 82 -50 100 -92 31 -75 38 -72 -174 -72 -104 0
-192 3 -196 7 -14 13 7 67 41 107 54 63 134 80 229 50z"/>
<path d="M4437 2986 c-43 -16 -62 -29 -98 -69 l-27 -30 2 49 1 49 -71 3 c-68
3 -72 2 -75 -20 -2 -13 -4 -174 -3 -358 l1 -335 71 -2 c40 -1 72 1 73 5 0 4 2
106 3 227 1 197 4 224 21 260 29 57 79 82 173 84 21 1 22 5 22 76 l0 75 -27 0
c-16 -1 -45 -7 -66 -14z"/>
<path d="M4898 2983 c-26 -10 -56 -25 -66 -33 -50 -42 -49 -42 -46 0 l2 40
-74 0 c-74 0 -74 0 -74 -27 -1 -40 -1 -611 0 -655 l0 -37 73 2 72 2 1 227 c1
218 3 229 25 275 34 68 83 95 166 90 66 -3 99 -20 136 -68 29 -40 33 -79 33
-311 l-1 -216 72 0 c44 0 73 5 75 12 9 28 -1 475 -11 513 -33 119 -130 193
-263 200 -53 2 -86 -2 -120 -14z"/>
<path d="M5665 2987 c-128 -43 -196 -112 -241 -244 -25 -74 -15 -212 20 -283
60 -120 170 -191 302 -196 117 -4 201 25 281 99 95 87 130 219 98 376 -16 84
-103 187 -190 227 -67 31 -207 42 -270 21z m177 -129 c52 -15 115 -80 129
-132 53 -192 -57 -352 -228 -332 -114 13 -170 80 -180 211 -14 188 112 303
279 253z"/>
<path d="M7157 2980 c-113 -43 -188 -133 -213 -253 -40 -191 36 -364 194 -439
93 -44 256 -25 327 39 54 49 56 49 54 12 -4 -68 -6 -67 74 -65 l72 1 0 355 0
355 -72 3 c-54 2 -73 0 -74 -10 -1 -7 -1 -31 -1 -52 l0 -39 -23 25 c-13 15
-50 39 -82 55 -74 36 -182 41 -256 13z m218 -123 c148 -57 190 -276 77 -404
-28 -32 -100 -63 -150 -63 -51 0 -95 17 -139 54 -98 83 -104 267 -12 365 50
53 153 75 224 48z"/>
<path d="M7995 2991 c-119 -32 -185 -103 -185 -199 0 -101 56 -157 200 -201
190 -59 210 -69 210 -111 0 -43 -9 -59 -43 -77 -74 -38 -190 -8 -217 57 -7 17
-16 30 -21 31 -5 1 -34 1 -64 1 -76 0 -75 0 -75 -21 0 -47 41 -111 100 -153
71 -53 210 -70 315 -40 84 24 155 112 155 192 0 114 -65 166 -289 230 -88 26
-124 56 -119 102 8 80 153 101 222 32 14 -15 26 -35 26 -45 0 -17 9 -19 76
-19 l76 0 -7 37 c-22 117 -112 184 -255 189 -41 2 -88 -1 -105 -5z"/>
<path d="M1710 2752 c0 -185 3 -250 15 -290 56 -187 286 -260 453 -142 l44 31
-4 -38 -3 -38 75 0 75 0 0 355 0 355 -74 0 -74 0 -1 -235 c-2 -248 -5 -270
-52 -311 -81 -71 -221 -59 -272 23 -30 48 -34 87 -36 319 l-1 204 -72 3 -73 3
0 -239z"/>
<path d="M6180 2982 c0 -4 8 -30 19 -57 32 -87 149 -395 199 -525 l48 -125 89
0 88 0 134 349 c75 197 130 353 125 358 -5 5 -39 8 -77 6 l-67 -3 -32 -90
c-18 -49 -63 -180 -101 -289 -58 -169 -70 -196 -78 -175 -20 52 -170 486 -180
522 l-11 37 -78 0 c-43 0 -78 -3 -78 -8z"/>
<path d="M1224 2010 c-179 -27 -263 -212 -148 -326 37 -37 57 -48 161 -80 158
-49 190 -66 198 -105 13 -58 -51 -100 -143 -94 -61 5 -95 25 -117 71 l-16 34
-75 0 -76 0 7 -32 c25 -121 141 -198 296 -198 162 0 271 85 271 210 0 101 -56
153 -221 206 -64 20 -129 43 -144 51 -59 30 -55 111 5 132 80 28 168 1 197
-59 16 -33 17 -34 77 -33 82 0 86 4 70 57 -38 127 -173 192 -342 166z"/>
<path d="M3605 2006 c-132 -32 -220 -121 -253 -257 -16 -62 -8 -194 14 -249
54 -139 180 -222 336 -221 140 0 249 66 312 188 l16 32 -33 3 c-17 2 -55 1
-83 0 -41 -3 -54 -8 -63 -25 -24 -44 -81 -71 -151 -71 -106 -1 -173 52 -205
162 -5 17 -2 22 12 23 10 0 134 1 276 1 141 0 258 3 258 7 7 34 3 125 -6 161
-40 154 -154 246 -314 254 -36 2 -88 -2 -116 -8z m180 -135 c62 -29 105 -86
105 -141 0 -18 -11 -19 -195 -19 l-195 0 0 23 c0 39 54 111 101 134 55 27 129
28 184 3z"/>
<path d="M4452 2005 c-50 -15 -86 -38 -119 -74 l-23 -26 4 37 c5 55 -4 62 -78
63 -53 1 -66 -2 -67 -15 -3 -49 -4 -677 -1 -687 3 -9 27 -13 76 -13 l71 0 0
228 c1 200 3 231 19 261 32 59 78 83 166 85 24 1 25 4 28 76 3 86 1 88 -76 65z"/>
<path d="M4935 2010 c-43 -10 -100 -38 -121 -61 -24 -27 -29 -24 -29 18 l0 37
-72 1 -73 2 0 -71 c-1 -75 -1 -626 0 -639 0 -4 33 -7 73 -5 l72 3 1 223 c2
259 9 292 74 337 68 47 177 39 238 -17 40 -39 49 -96 48 -330 l-1 -218 72 0
c51 0 73 4 74 13 6 68 2 443 -4 481 -17 97 -67 163 -155 204 -56 25 -140 35
-197 22z"/>
<path d="M5670 2003 c-154 -39 -255 -174 -259 -343 -3 -166 65 -285 199 -349
49 -23 67 -26 160 -26 92 0 112 4 161 26 136 64 212 197 205 359 -7 165 -109
295 -261 335 -53 14 -148 13 -205 -2z m197 -137 c36 -18 76 -62 98 -106 23
-44 24 -171 2 -220 -69 -157 -283 -179 -371 -37 -24 39 -30 62 -34 126 -4 69
-1 86 21 133 27 60 71 100 127 116 44 13 121 7 157 -12z"/>
<path d="M7176 2003 c-97 -29 -180 -105 -216 -199 -72 -193 1 -410 167 -495
40 -20 61 -24 142 -24 107 0 139 11 209 71 l40 34 0 -32 c-1 -72 -5 -68 76
-68 l75 0 -2 357 -2 357 -68 1 c-37 1 -71 -3 -74 -8 -3 -6 -5 -28 -5 -49 l2
-39 -39 33 c-76 65 -204 90 -305 61z m205 -131 c119 -48 173 -218 108 -347
-64 -128 -229 -158 -330 -59 -126 123 -84 356 73 410 38 13 112 11 149 -4z"/>
<path d="M8003 2009 c-114 -21 -193 -104 -193 -204 0 -106 67 -162 254 -215
115 -32 145 -48 155 -84 10 -36 0 -60 -34 -82 -33 -22 -117 -26 -159 -9 -36
15 -76 58 -76 81 0 11 -18 14 -76 14 l-77 0 6 -35 c24 -150 244 -241 421 -174
102 38 154 115 143 211 -12 98 -72 142 -265 199 -53 15 -104 37 -118 50 -29
28 -31 68 -4 97 26 28 58 36 122 30 42 -4 57 -11 80 -37 15 -17 28 -38 28 -46
0 -14 10 -17 65 -17 94 0 93 -1 75 64 -19 65 -92 134 -165 153 -43 11 -133 13
-182 4z"/>
<path d="M1714 2001 c-3 -3 -4 -112 -4 -242 2 -287 8 -317 86 -396 57 -58 121
-83 208 -83 72 0 118 15 171 56 37 28 46 31 45 17 -7 -63 -6 -64 73 -61 l72 3
1 353 c1 250 -2 352 -10 353 -48 6 -136 2 -137 -6 0 -5 -1 -111 -2 -235 -2
-197 -5 -229 -21 -260 -24 -45 -38 -58 -80 -75 -70 -30 -162 -17 -204 28 -48
50 -53 85 -54 326 l-1 227 -69 -1 c-38 0 -72 -2 -74 -4z"/>
<path d="M6180 1998 c0 -8 63 -183 84 -233 7 -16 27 -66 44 -110 16 -44 42
-111 57 -150 15 -38 28 -74 30 -80 1 -5 6 -21 12 -35 6 -14 16 -42 24 -63 l13
-38 90 3 91 3 133 349 c89 234 130 351 122 356 -6 4 -41 6 -77 5 l-66 -1 -14
-40 c-64 -192 -186 -534 -189 -531 -3 3 -63 175 -174 497 -13 36 -24 67 -26
69 -7 8 -154 7 -154 -1z"/>
</g>
</svg>
