<svg width="23" height="20" viewBox="0 0 23 20" fill="none" xmlns="http://www.w3.org/2000/svg">
    <path d="M22.0088 15.35L18.4154 19.2029C18.3377 19.2866 18.2435 19.3534 18.1389 19.3991C18.0342 19.4448 17.9212 19.4684 17.807 19.4685H0.772973C0.691731 19.4685 0.612263 19.4448 0.544301 19.4002C0.476341 19.3557 0.422838 19.2924 0.390342 19.2179C0.357845 19.1434 0.347767 19.0611 0.361341 18.981C0.374916 18.9009 0.411551 18.8265 0.466766 18.7669L4.05608 14.914C4.13381 14.8303 4.22793 14.7635 4.3326 14.7178C4.43726 14.6721 4.55023 14.6484 4.66444 14.6483H21.6985C21.7804 14.6466 21.8611 14.6692 21.9303 14.7133C21.9994 14.7573 22.0542 14.8208 22.0872 14.8958C22.1205 14.9708 22.1306 15.054 22.1166 15.1348C22.1027 15.2156 22.0651 15.2905 22.0088 15.35ZM18.4154 7.58932C18.3374 7.50602 18.2432 7.4395 18.1386 7.39382C18.034 7.34815 17.9212 7.32428 17.807 7.32369H0.772973C0.691731 7.32373 0.612263 7.34746 0.544301 7.39199C0.476341 7.4365 0.422838 7.49987 0.390342 7.57434C0.357845 7.6488 0.347767 7.73111 0.361341 7.81121C0.374916 7.89131 0.411551 7.96573 0.466766 8.02533L4.05608 11.8803C4.1341 11.9636 4.22829 12.0301 4.33289 12.0758C4.43749 12.1215 4.55032 12.1453 4.66444 12.1459H21.6985C21.7796 12.1455 21.8587 12.1215 21.9264 12.0768C21.9942 12.0321 22.0473 11.9688 22.0795 11.8944C22.1118 11.82 22.1217 11.7378 22.1079 11.6579C22.0943 11.578 22.0578 11.5038 22.0027 11.4443L18.4154 7.58932ZM0.772973 4.82129H17.807C17.9212 4.82119 18.0342 4.79752 18.1389 4.75181C18.2435 4.70613 18.3377 4.63933 18.4154 4.55564L22.0088 0.702706C22.0651 0.643193 22.1027 0.568322 22.1166 0.487514C22.1306 0.406705 22.1205 0.323569 22.0872 0.248566C22.0542 0.173564 21.9994 0.110046 21.9303 0.0660068C21.8611 0.0219668 21.7804 -0.00062807 21.6985 0.00106522H4.66444C4.55023 0.00118544 4.43726 0.0248355 4.3326 0.0705407C4.22793 0.116246 4.13381 0.183025 4.05608 0.266716L0.466766 4.11965C0.411551 4.17925 0.374916 4.25367 0.361341 4.33377C0.347767 4.41387 0.357845 4.49618 0.390342 4.57064C0.422838 4.64511 0.476341 4.70848 0.544301 4.75299C0.612263 4.79752 0.691731 4.82125 0.772973 4.82129Z" fill="url(#paint0_linear_6089_2095)"/>
    <defs>
    <linearGradient id="paint0_linear_6089_2095" x1="2.19248" y1="19.9329" x2="20.0539" y2="-0.203748" gradientUnits="userSpaceOnUse">
    <stop offset="0.08" stop-color="#9945FF"/>
    <stop offset="0.3" stop-color="#8752F3"/>
    <stop offset="0.5" stop-color="#5497D5"/>
    <stop offset="0.6" stop-color="#43B4CA"/>
    <stop offset="0.72" stop-color="#28E0B9"/>
    <stop offset="0.97" stop-color="#19FB9B"/>
    </linearGradient>
    </defs>
    </svg>
    